Coordinates
version=1
nRows=14
nColumns=24
inDegrees=yes

Units are S.I. units (second, meters, Newtons, ...)
Angles are in degrees.

endheader
time	pelvis_tilt	pelvis_list	pelvis_rotation	pelvis_tx	pelvis_ty	pelvis_tz	hip_flexion_r	hip_adduction_r	hip_rotation_r	knee_angle_r	ankle_angle_r	subtalar_angle_r	mtp_angle_r	hip_flexion_l	hip_adduction_l	hip_rotation_l	knee_angle_l	ankle_angle_l	subtalar_angle_l	mtp_angle_l	lumbar_extension	lumbar_bending	lumbar_rotation
      0.68366667	     -8.35111696	      0.33317474	      2.55651852	     -0.36400850	      1.06317562	      0.29608200	     18.71039779	      2.41326400	     -0.65193336	    -19.90557589	     10.01988431	     -6.89176478	      3.75916253	     27.27067061	     -3.20403734	     -2.87297863	    -71.42408102	     10.41228089	      6.50157776	      0.56378471	     -3.85761687	      3.94861400	      3.26600447
      0.68783333	     -8.31966614	      0.43359225	      2.40396837	     -0.35883229	      1.06403015	      0.29652020	     18.21366763	      2.37155811	     -0.53434075	    -19.56684620	     10.10732088	     -6.79412172	      3.74022366	     27.71965165	     -3.15752263	     -3.08590170	    -70.93627220	     10.69130064	      6.82030201	      0.60774376	     -3.92608585	      3.80772132	      3.49442371
      0.69200000	     -8.32678889	      0.53855189	      2.23480260	     -0.35364826	      1.06476183	      0.29697879	     17.76559690	      2.32448950	     -0.40893694	    -19.24060308	     10.18833815	     -6.69329398	      3.71661439	     28.19553236	     -3.11655602	     -3.32473655	    -70.40818167	     10.96125585	      7.11090957	      0.66125788	     -3.93737174	      3.64702644	      3.73470049
      0.69616667	     -8.30625649	      0.64875491	      2.06491803	     -0.34849561	      1.06552372	      0.29742474	     17.28909462	      2.27016832	     -0.27236182	    -18.91238484	     10.26571954	     -6.59204780	      3.69962722	     28.62784308	     -3.07065493	     -3.56264562	    -69.82908874	     11.21677422	      7.40654968	      0.70490771	     -3.99666953	      3.50652022	      3.90625196
      0.70033333	     -8.30119301	      0.76169424	      1.88456614	     -0.34332566	      1.06622150	      0.29790266	     16.83037333	      2.21303789	     -0.13712143	    -18.58414624	     10.32426166	     -6.47959799	      3.69023450	     29.06180200	     -3.03540991	     -3.82500240	    -69.20985768	     11.45642422	      7.66049364	      0.73392318	     -4.02673986	      3.34009685	      4.02890616
      0.70450000	     -8.28098878	      0.85620027	      1.71551925	     -0.33817473	      1.06688992	      0.29834223	     16.35307799	      2.16966378	     -0.00966418	    -18.25096265	     10.42751119	     -6.38849545	      3.66843412	     29.47323937	     -3.01289301	     -4.06219555	    -68.55665411	     11.68746523	      7.95431257	      0.78879783	     -4.08315269	      3.20011122	      4.33800813
      0.70866667	     -8.30257455	      0.96869952	      1.53270143	     -0.33303034	      1.06744485	      0.29879240	     15.93324276	      2.10529376	      0.12928324	    -17.94086041	     10.49834018	     -6.28052030	      3.65707414	     29.91198264	     -2.97646493	     -4.31922919	    -67.85727395	     11.89183364	      8.19495085	      0.82165219	     -4.08540069	      3.05911630	      4.46770769
      0.71283333	     -8.28901727	      1.05451629	      1.35942638	     -0.32789338	      1.06801027	      0.29923444	     15.46637870	      2.06623813	      0.25099294	    -17.60792824	     10.59428272	     -6.17721617	      3.63575639	     30.30782061	     -2.97191150	     -4.56404530	    -67.13204593	     12.09291151	      8.44936996	      0.87388538	     -4.12858678	      2.91332447	      4.73276594
      0.71700000	     -8.28910635	      1.14238270	      1.18492812	     -0.32275821	      1.06851589	      0.29966288	     15.01898198	      2.02084286	      0.37302861	    -17.28427508	     10.67826391	     -6.07564973	      3.61812502	     30.70301955	     -2.96325948	     -4.80681960	    -66.36395731	     12.26759928	      8.67140657	      0.91691662	     -4.15390109	      2.78719815	      4.90543321
      0.72116667	     -8.29567595	      1.23080477	      1.01147344	     -0.31763692	      1.06897280	      0.30007373	     14.57949096	      1.97060305	      0.49436749	    -16.96010464	     10.75875925	     -5.96308575	      3.59743868	     31.09258987	     -2.95135001	     -5.04324982	    -65.55763000	     12.42261392	      8.87391405	      0.96414283	     -4.18118185	      2.65720424	      5.10501416
      0.72533333	     -8.31636847	      1.31862400	      0.84474752	     -0.31250324	      1.06935906	      0.30048074	     14.15539588	      1.91640867	      0.59958706	    -16.63600587	     10.82661124	     -5.84299087	      3.59162828	     31.48480755	     -2.93922658	     -5.27559815	    -64.71551067	     12.54673182	      9.02577365	      0.98176214	     -4.17572308	      2.52354053	      5.17288529
      0.72950000	     -8.30257573	      1.39861957	      0.67353703	     -0.30740325	      1.06975775	      0.30086002	     13.70352626	      1.86641730	      0.69678638	    -16.32969488	     10.93332207	     -5.71909599	      3.56744932	     31.82493278	     -2.93376184	     -5.49998345	    -63.83496708	     12.67400802	      9.20786232	      1.03159285	     -4.22701010	      2.41241138	      5.45408587
      0.73366667	     -8.31920288	      1.47008716	      0.51585248	     -0.30229596	      1.07003835	      0.30122691	     13.28206920	      1.82160884	      0.78528043	    -16.02086932	     11.04584156	     -5.60883129	      3.55266481	     32.19072345	     -2.93215312	     -5.70796550	    -62.92943927	     12.77638061	      9.35532199	      1.06220548	     -4.22950268	      2.30406913	      5.57862376
      0.73783333	     -8.35089169	      1.52689312	      0.36959245	     -0.29718954	      1.07026189	      0.30155437	     12.86950393	      1.78624301	      0.86662459	    -15.69365344	     11.11447999	     -5.48468305	      3.54747531	     32.56317325	     -2.93511913	     -5.89101975	    -61.99462317	     12.85285160	      9.45240131	      1.07407513	     -4.21928916	      2.21433727	      5.64406663
